MythBusters.S10E10.Bubble.Pack.Plunge.HDTV.x264-Sceper

Adam and Jamie determine if a person wrapped in bubble packaging could survive a fall from a building. Also: James Bond ejector seat experiments are conducted.

Format                                   : MPEG-4
Format profile                           : Base Media / Version 2
Codec ID                                 : mp42
File size                                : 405 MiB
Duration                                 : 42mn 50s
Overall bit rate mode                    : Variable
Overall bit rate                         : 1 321 Kbps

Video
ID                                       : 2
Format                                   : AVC
Format/Info                              : Advanced Video Codec
Format profile                           : High@L3.1
Format settings, CABAC                   : Yes
Format settings, ReFrames                : 5 frames
Codec ID                                 : avc1
Codec ID/Info                            : Advanced Video Coding
Duration                                 : 42mn 50s
Bit rate mode                            : Constant
Bit rate                                 : 1 189 Kbps
Nominal bit rate                         : 1 251 Kbps / 1 251 Kbps
Width                                    : 720 pixels
Height                                   : 404 pixels
Display aspect ratio                     : 16:9
Original display aspect ratio            : 16:9
Frame rate mode                          : Constant
Frame rate                               : 29.970 fps
Standard                                 : NTSC
Color space                              : YUV
Chroma subsampling                       : 4:2:0
Bit depth                                : 8 bits
Scan type                                : Progressive
Bits/(Pixel*Frame)                       : 0.136
Stream size                              : 364 MiB (90%)
Writing library                          : x264 core 114

Audio
ID                                       : 1
Format                                   : AAC
Format/Info                              : Advanced Audio Codec
Format profile                           : LC
Codec ID                                 : 40
Duration                                 : 42mn 50s
Bit rate mode                            : Variable
Bit rate                                 : 128 Kbps
Maximum bit rate                         : 576 Kbps
Channel(s)                               : 2 channels
Channel positions                        : Front: L R
Sampling rate                            : 48.0 KHz
Compression mode                         : Lossy
Stream size                              : 39.2 MiB (10%)